<svg width="80px" height="80px" class="hidden">
  <symbol version="1.2" xmlns="http://www.w3.org/2000/svg" viewBox="80 80 500 180" id="car-0">
    <path fill-rule="evenodd" d="m2.2 125.4c0.9-4.5 2.2-9.9 2.2-9.9l-0.2-11.8c0 0 7.5-3.8 7.8-5.6 0.2-1.8 1.1-23.1 3.5-26.8 
			2.5-3.8-1.1-17.1-1.1-17.1h17.4c0 0 17.6-15.1 30-20.7 0 0 2-8.7-5.3-13.3l-0.2-2.7c0 0 16-2.2 37.3-3.8 0 0 7.3-7.9 18-9.1 
			10.7-1.2 135.3-10 166.2 13.4 30.9 23.4 53.1 39 53.1 39 0 0 126.9-0.8 157.2 31.6 0 0 0.4 11.1 0 16.9 0 0 3.1 5.3 7.3 6.6 
			4.3 1.3-1.1 8.8-1.1 8.8 0 0-8.9 4.8-9.5 11.6-0.7 6.9-18.1 15.6-26.3 21.6 0 0 5.2-58-44.5-62.4-49.7-4.5-53.2 59.1-53.2 
			59.1h-180.3c0 0-23.6 7.1-29.4 3.3 0 0-2.2-62.4-47.2-62.4-45 0-52.5 38.6-49 56 0 0-12.4 0.4-17.8-4.5-5.3-4.9-16.5-0.9-16.5-0.9 
			0 0-12.9 0.5-9.3-5.8 0 0-10-6.5-9.1-11.1zm10.2 0.6l34.5 1.7c0 0 13.8-42.7 55.7-42.4 41.8 0.3 50.3 47.2 50.3 47.2l205.3 2.1c0 0 
			2.1-45 50.6-49.3 48.6-4.3 54.4 49.3 54.4 49.3 0 0 12.2-0.1 15.3-2.5 0 0-8.7-0.9-11.1-3.1-2.5-2.2-4.7-48.4-56.3-48.4-51.7 0-57.9 
			47.2-57.9 47.2l-195.9 0.3c0 0-8.7-39.8-49.6-46.4l0.2-19.3 3.1-4.8c35.2 2.4 70.9 3.4 102.4 3.6l1.2 63.4c6-29.4 1.9-53.9-0.3-63.4q6 
			0 11.7 0c20.6 0 39-0.3 53.6-0.6l-0.5-1.2c-0.9-2.5-1.1-4.7-1-6.5-0.4-7.9 6.7-9.2 6.7-9.2-18.2-14.4-47.8-19.7-59.4-20.2-11.6-0.4-6.8 
			9.7-6.8 9.7l6.6 24.5-11.8-0.2c0-0.1-0.1 0.1-0.1 0h-0.1c-3.8-0.1-7.5-0.2-11.3-0.2l-0.1-0.2-3-33.6c0 0-49.3-2.6-58 13.1l2.1 
			19.3c-11.3-0.2-21.8 0.2-30.6 0.1l-0.5-0.1-26.9-0.4c8.3 0.7 16.7 1.4 25.1 2l-4.8 4.2-0.4 18.6c0 0-46.3-0.4-60.1 43.2 0 
			0-9.6-8.3-10.7-17.6 0 0-14.7 3.1-26.7 0 0 0-2.5 8.6 5.1 20.1zm34.8-69.2c1.6-1.1 26.8-19.2 30.9-22.9 4.2-3.7 4.6-7.3 
			4.6-7.3zm270.7 0.1c0 0-43.4-35-74.2-40.5-30.7-5.6-98.1-2.7-118.2 7.3-19.3 9.7-74 30.1-39.9 31.5-19.2-10.4 67.1-35 
			67.1-35 0 0 75.2-7.8 103.3 2.4 28 10.2 59 36.7 59 36.7 3.3 0.1 5.1 0.2 5.1 0.2zm-205-47.3l5.3 4c95.3-8.9 133.8-0.6 
			147.8 4.7-50.5-22.4-153.1-8.7-153.1-8.7zm-48.1 10.8v3.1c0 0 28.5-4.7 44.5-5.9zm232 39.8c0 0 7.1-4.6 
			2.3-9.8-4.7-5.1-10.7-4.8-10.7-4.8 0 0 13 5.7 8.4 14.6zm27.1 1.9c21.3 16.9 9.2 59.3 8.3 62.2 21-50.5-8.3-62.2-8.3-62.2zm19.5 
			62.4h7.8c3.3-22.1 17.5-32.1 17.5-32.1-17.5-1.5-25.3 32.1-25.3 32.1zm138.3-28c4.4-4.4 0-8.7 0-8.7-18.9-14-60.1-14.3-60.1-14.3 
			29.1 9 33.1 17.6 39.9 21.2 6.8 3.6 20.2 1.8 20.2 1.8zm-457.2-32.4c-13.7 15.2 2 16.2 19.2 10.8 17.1-5.3 15.1-10.8 
			15.1-10.8zm225.2 8c0-0.9-0.8-1.7-1.7-1.7h-25.9c-0.9 0-1.6 0.8-1.6 1.7 0 0.9 0.7 1.6 1.6 1.6h25.9c0.9 0 1.7-0.7 
			1.7-1.6zm-104.9-2.2c0-0.9-0.7-1.5-1.5-1.5h-25.8c-0.9 0-1.5 0.6-1.5 1.5 0 0.8 0.6 1.4 1.5 1.4h25.8c0.8 0 1.5-0.6 1.5-1.4z"></path>
    <path d="m266 18.4q3.8 1.6 7 3.5c-0.1-0.1-1.9-1.6-7-3.5z"></path>
    <path fill-rule="evenodd" d="m101.9 108.1c16.4 0 29.7 13.2 29.7 29.5 0 16.3-13.3 29.5-29.7 29.5-16.4 0-29.7-13.2-29.7-29.5 
			0-16.3 13.3-29.5 29.7-29.5zm-9.6 6.3l9.6 16.4 8-16.4c-7.1-5.9-17.6 0-17.6 0zm6.2 23.2c0 2.2 1.8 3.9 4 3.9 2.2 0 4-1.7 4-3.9 
			0-2.2-1.8-3.9-4-3.9-2.2 0-4 1.7-4 3.9zm21-18.5l-10.1 16 18.2-0.4c2-9.1-8.1-15.6-8.1-15.6zm6.8 23.8l-19-0.4 9.7 15.3c8.9-2.8 
			9.3-14.9 9.3-14.9zm-15.6 19.1l-9.2-16.5-8.4 16.1c7 6.2 17.6 0.4 17.6 0.4zm-24.5-3.8l10.1-16.1-18.2 0.5c-2 9 8.1 15.6 8.1 
			15.6zm9.3-23.6l-11.7-13.9c-8.4 4.1-7.2 16.1-7.2 16.1z"></path>
    <path fill-rule="evenodd" d="m102.5 97.4c22.8 0 41.2 18.3 41.2 41 0 22.7-18.4 41-41.2 41-22.8 0-41.2-18.3-41.2-41 0-22.7 18.4-41 41.2-41zm-33.2 
			40.2c0 17.9 14.6 32.5 32.6 32.5 18.1 0 32.7-14.6 32.7-32.5 0-18-14.6-32.5-32.7-32.5-18 0-32.6 14.5-32.6 32.5z"></path>
    <path fill-rule="evenodd" d="m101.9 108.1c16.4 0 29.7 13.2 29.7 29.5 0 16.3-13.3 29.5-29.7 29.5-16.4 0-29.7-13.2-29.7-29.5 
			0-16.3 13.3-29.5 29.7-29.5zm-9.6 6.3l9.6 16.4 8-16.4c-7.1-5.9-17.6 0-17.6 0zm6.2 23.2c0 2.2 1.8 3.9 4 3.9 2.2 0 4-1.7 4-3.9 
			0-2.2-1.8-3.9-4-3.9-2.2 0-4 1.7-4 3.9zm21-18.5l-10.1 16 18.2-0.4c2-9.1-8.1-15.6-8.1-15.6zm6.8 23.8l-19-0.4 9.7 15.3c8.9-2.8 
			9.3-14.9 9.3-14.9zm-15.6 19.1l-9.2-16.5-8.4 16.1c7 6.2 17.6 0.4 17.6 0.4zm-24.5-3.8l10.1-16.1-18.2 0.5c-2 9 8.1 15.6 8.1 
			15.6zm9.3-23.6l-11.7-13.9c-8.4 4.1-7.2 16.1-7.2 16.1z"></path>
    <path fill-rule="evenodd" d="m101.9 108.1c16.4 0 29.7 13.2 29.7 29.5 0 16.3-13.3 29.5-29.7 29.5-16.4 0-29.7-13.2-29.7-29.5 0-16.3 
			13.3-29.5 29.7-29.5zm-9.6 6.3l9.6 16.4 8-16.4c-7.1-5.9-17.6 0-17.6 0zm6.2 23.2c0 2.2 1.8 3.9 4 3.9 2.2 0 4-1.7 
			4-3.9 0-2.2-1.8-3.9-4-3.9-2.2 0-4 1.7-4 3.9zm21-18.5l-10.1 16 18.2-0.4c2-9.1-8.1-15.6-8.1-15.6zm6.8 23.8l-19-0.4 9.7 15.3c8.9-2.8 
			9.3-14.9 9.3-14.9zm-15.6 19.1l-9.2-16.5-8.4 16.1c7 6.2 17.6 0.4 17.6 0.4zm-24.5-3.8l10.1-16.1-18.2 0.5c-2 9 8.1 15.6 8.1 
			15.6zm9.3-23.6l-11.7-13.9c-8.4 4.1-7.2 16.1-7.2 16.1z"></path>
    <path fill-rule="evenodd" d="m409.1 108.1c16.4 0 29.7 13.2 29.7 29.5 0 16.3-13.3 29.5-29.7 29.5-16.4 0-29.7-13.2-29.7-29.5 0-16.3 
			13.3-29.5 29.7-29.5zm-9.6 6.3l9.6 16.4 8-16.4c-7.1-5.9-17.6 0-17.6 0zm6.2 23.2c0 2.2 1.8 3.9 4 3.9 2.2 0 4-1.7 4-3.9 
			0-2.2-1.8-3.9-4-3.9-2.2 0-4 1.7-4 3.9zm21-18.5l-10.2 16 18.2-0.4c2.1-9.1-8-15.6-8-15.6zm6.8 23.8l-19-0.4 9.7 15.3c8.9-2.8 
			9.3-14.9 9.3-14.9zm-15.6 19.1l-9.3-16.5-8.3 16.1c7 6.2 17.6 0.4 17.6 0.4zm-24.5-3.8l10.1-16.1-18.2 0.5c-2 9 8.1 15.6 8.1 
			15.6zm9.3-23.6l-11.8-13.9c-8.3 4.1-7.1 16.1-7.1 16.1z"></path>
    <path fill-rule="evenodd" d="m409.7 97.4c22.8 0 41.2 18.3 41.2 41 0 22.7-18.4 41-41.2 41-22.8 0-41.2-18.3-41.2-41 0-22.7 18.4-41 
			41.2-41zm-33.2 40.2c0 17.9 14.6 32.5 32.6 32.5 18.1 0 32.7-14.6 32.7-32.5 0-18-14.6-32.5-32.7-32.5-18 0-32.6 14.5-32.6 32.5z"></path>
    <path fill-rule="evenodd" d="m409.1 108.1c16.4 0 29.7 13.2 29.7 29.5 0 16.3-13.3 29.5-29.7 29.5-16.4 0-29.7-13.2-29.7-29.5 0-16.3 
			13.3-29.5 29.7-29.5zm-9.6 6.3l9.6 16.4 8-16.4c-7.1-5.9-17.6 0-17.6 0zm6.2 23.2c0 2.2 1.8 3.9 4 3.9 2.2 0 4-1.7 4-3.9 0-2.2-1.8-3.9-4-3.9-2.2 
			0-4 1.7-4 3.9zm21-18.5l-10.2 16 18.2-0.4c2.1-9.1-8-15.6-8-15.6zm6.8 23.8l-19-0.4 9.7 15.3c8.9-2.8 9.3-14.9 9.3-14.9zm-15.6 19.1l-9.3-16.5-8.3 
			16.1c7 6.2 17.6 0.4 17.6 0.4zm-24.5-3.8l10.1-16.1-18.2 0.5c-2 9 8.1 15.6 8.1 15.6zm9.3-23.6l-11.8-13.9c-8.3 4.1-7.1 16.1-7.1 16.1z"></path>
    <path fill-rule="evenodd" d="m409.1 108.1c16.4 0 29.7 13.2 29.7 29.5 0 16.3-13.3 29.5-29.7 29.5-16.4 0-29.7-13.2-29.7-29.5 
			0-16.3 13.3-29.5 29.7-29.5zm-9.6 6.3l9.6 16.4 8-16.4c-7.1-5.9-17.6 0-17.6 0zm6.2 23.2c0 2.2 1.8 3.9 4 3.9 2.2 0 4-1.7 4-3.9 
			0-2.2-1.8-3.9-4-3.9-2.2 0-4 1.7-4 3.9zm21-18.5l-10.2 16 18.2-0.4c2.1-9.1-8-15.6-8-15.6zm6.8 23.8l-19-0.4 9.7 15.3c8.9-2.8 
			9.3-14.9 9.3-14.9zm-15.6 19.1l-9.3-16.5-8.3 16.1c7 6.2 17.6 0.4 17.6 0.4zm-24.5-3.8l10.1-16.1-18.2 0.5c-2 9 8.1 15.6 8.1 
			15.6zm9.3-23.6l-11.8-13.9c-8.3 4.1-7.1 16.1-7.1 16.1z"></path>
  </symbol>
	  <symbol version="1.2" xmlns="http://www.w3.org/2000/svg" viewBox="80 80 500 180" id="car-1">
<g transform="translate(0.000000,640.000000) scale(0.100000,-0.100000)"
fill="#000000" stroke="none">
<path d="M3565 5336 c-106 -30 -101 -26 -108 -111 -4 -42 -9 -80 -12 -85 -6
-10 -246 -105 -590 -234 -448 -167 -1052 -415 -1173 -483 -78 -43 -193 -91
-250 -104 -23 -5 -98 -14 -165 -19 -67 -6 -167 -19 -222 -30 -154 -31 -340
-49 -563 -57 l-203 -6 -43 -66 c-59 -91 -60 -95 -26 -130 37 -37 38 -65 3
-150 -25 -62 -27 -78 -31 -256 l-4 -190 -38 -32 c-91 -78 -133 -209 -134 -418
0 -194 11 -396 26 -482 13 -71 14 -74 72 -122 69 -58 130 -129 158 -184 64
-126 534 -211 1384 -250 l92 -4 -6 119 c-6 142 8 256 49 383 112 352 394 622
756 722 90 26 112 28 278 28 165 0 188 -2 278 -27 201 -56 361 -152 504 -302
140 -145 222 -293 274 -492 21 -79 24 -109 23 -279 -1 -127 -6 -214 -16 -263
l-15 -73 3006 7 c1653 4 3007 8 3009 9 1 1 -8 37 -20 81 -19 67 -22 105 -22
259 -1 166 1 187 27 279 117 421 467 736 885 797 119 17 325 7 432 -21 239
-63 453 -205 601 -399 70 -92 154 -267 185 -386 24 -88 27 -119 27 -260 1
-116 -4 -181 -16 -234 -10 -41 -16 -75 -15 -76 2 -1 62 2 133 6 266 16 458 45
525 79 48 24 97 81 127 146 l24 52 -16 157 c-15 152 -15 163 4 284 63 388 50
680 -35 802 -134 193 -526 336 -1429 519 -737 149 -1322 209 -2033 210 -228 0
-226 0 -347 85 -187 131 -1045 607 -1471 815 -383 187 -788 281 -1439 332
-208 17 -1106 16 -1400 0 -121 -7 -314 -19 -430 -27 -302 -22 -286 -22 -341
10 -140 81 -187 94 -269 71z m1885 -333 c6 -37 38 -238 71 -446 32 -209 66
-422 75 -474 9 -52 15 -96 13 -97 -11 -9 -1699 29 -1951 44 -206 13 -417 36
-485 54 -98 26 -198 119 -249 231 -35 75 -36 172 -5 255 17 45 30 61 68 86 83
54 135 80 253 127 341 136 858 230 1460 267 269 16 270 16 511 18 l227 2 12
-67z m630 47 c264 -18 777 -110 1029 -186 186 -56 445 -188 756 -387 211 -134
274 -181 250 -185 -75 -12 -133 -50 -162 -106 -19 -35 -21 -136 -4 -179 l11
-27 -907 2 -906 3 -59 160 c-110 302 -298 878 -298 916 0 6 95 2 290 -11z"/>
<path d="M2633 3125 c-223 -40 -410 -141 -568 -306 -132 -138 -213 -283 -262
-467 -22 -83 -26 -119 -26 -247 -1 -169 10 -236 65 -382 87 -230 271 -436 493
-551 85 -44 178 -78 271 -98 107 -23 312 -23 419 1 392 84 699 375 802 761 23
86 26 120 27 254 1 158 -5 199 -46 330 -98 310 -355 567 -668 669 -150 50
-354 64 -507 36z m350 -301 c249 -56 457 -247 543 -499 25 -72 28 -95 28 -220
1 -153 -15 -228 -74 -345 -94 -186 -283 -337 -485 -386 -96 -24 -268 -24 -360
0 -320 84 -544 355 -562 681 -20 359 209 673 558 765 94 24 253 26 352 4z"/>
<path d="M2600 2697 c-36 -13 -85 -36 -109 -51 l-44 -28 116 -115 c81 -82 120
-114 131 -110 14 6 16 29 16 167 0 186 6 178 -110 137z"/>
<path d="M2920 2561 c0 -139 2 -162 16 -168 11 -4 50 28 130 108 l115 114 -28
22 c-34 28 -138 70 -193 79 l-40 7 0 -162z"/>
<path d="M2282 2448 c-28 -36 -92 -191 -92 -225 0 -10 34 -13 165 -13 151 0
165 1 165 18 0 15 -206 232 -221 232 -4 0 -11 -6 -17 -12z"/>
<path d="M3222 2351 c-62 -59 -112 -115 -112 -124 0 -15 17 -17 165 -17 131 0
165 3 165 13 0 40 -69 205 -95 227 -7 6 -48 -27 -123 -99z"/>
<path d="M2781 2332 c-12 -22 11 -62 34 -62 8 0 21 10 29 22 20 28 4 58 -29
58 -13 0 -29 -8 -34 -18z"/>
<path d="M2749 2161 c-32 -33 -37 -67 -14 -110 29 -57 104 -64 151 -14 53 57
9 153 -71 153 -27 0 -44 -8 -66 -29z"/>
<path d="M2570 2125 c-26 -32 13 -81 48 -59 24 16 27 45 6 61 -23 17 -39 16
-54 -2z"/>
<path d="M3006 2124 c-20 -19 -20 -38 -2 -54 23 -19 61 -8 64 18 7 44 -32 67
-62 36z"/>
<path d="M2190 1975 c0 -29 41 -140 72 -194 l31 -53 117 117 c71 71 116 123
113 131 -4 11 -40 14 -169 14 -141 0 -164 -2 -164 -15z"/>
<path d="M3110 1972 c0 -9 51 -68 114 -131 l114 -114 31 54 c30 51 71 165 71
195 0 11 -31 14 -165 14 -151 0 -165 -1 -165 -18z"/>
<path d="M2780 1901 c-7 -15 -5 -24 8 -41 32 -40 85 -4 62 41 -14 25 -56 25
-70 0z"/>
<path d="M2562 1697 c-61 -62 -112 -115 -112 -119 0 -18 208 -108 249 -108 7
0 11 54 11 164 0 140 -2 165 -16 170 -9 3 -16 6 -17 6 -1 0 -53 -51 -115 -113z"/>
<path d="M2933 1803 c-15 -6 -19 -333 -4 -333 46 0 251 88 251 108 0 9 -223
232 -230 231 -3 0 -11 -3 -17 -6z"/>
<path d="M10700 3119 c-390 -84 -696 -376 -797 -759 -31 -117 -41 -292 -24
-411 33 -227 150 -453 318 -609 267 -250 643 -344 993 -249 117 32 283 118
380 196 487 396 518 1128 67 1560 -97 93 -166 140 -290 198 -137 64 -235 86
-407 91 -120 3 -162 0 -240 -17z m445 -313 c238 -81 409 -258 486 -506 30 -96
33 -289 5 -388 -110 -400 -513 -637 -911 -536 -149 38 -313 147 -402 267 -176
238 -203 533 -71 797 34 69 60 103 138 180 77 78 111 104 181 139 129 65 207
81 364 77 109 -3 143 -7 210 -30z"/>
<path d="M10703 2700 c-54 -19 -153 -71 -153 -80 0 -3 51 -57 114 -119 80 -80
119 -112 130 -108 14 5 16 29 16 167 l0 160 -27 -1 c-16 0 -52 -9 -80 -19z"/>
<path d="M11020 2561 c0 -139 2 -162 16 -168 22 -8 247 216 234 232 -17 20
-163 84 -207 91 l-43 7 0 -162z"/>
<path d="M10366 2424 c-29 -44 -76 -165 -76 -194 0 -19 7 -20 165 -20 126 0
165 3 165 13 0 7 -51 63 -114 126 l-114 114 -26 -39z"/>
<path d="M11313 2348 c-61 -62 -109 -119 -106 -125 6 -15 333 -19 333 -4 0 45
-88 241 -108 241 -4 0 -57 -51 -119 -112z"/>
<path d="M10882 2338 c-17 -17 -15 -32 7 -52 16 -14 23 -15 41 -6 31 17 24 64
-10 68 -14 2 -31 -3 -38 -10z"/>
<path d="M10846 2159 c-68 -81 17 -194 110 -144 89 48 56 175 -46 175 -30 0
-44 -6 -64 -31z"/>
<path d="M10670 2126 c-19 -23 -8 -61 18 -64 44 -7 67 32 36 62 -19 20 -38 20
-54 2z"/>
<path d="M11106 2127 c-21 -16 -18 -45 7 -61 37 -23 77 35 41 61 -10 7 -21 13
-24 13 -3 0 -14 -6 -24 -13z"/>
<path d="M10290 1970 c0 -29 43 -141 74 -195 l28 -48 116 116 c81 81 113 120
109 131 -6 14 -29 16 -167 16 -152 0 -160 -1 -160 -20z"/>
<path d="M11207 1978 c-3 -7 47 -66 111 -130 l116 -118 27 43 c27 44 79 177
79 203 0 12 -28 14 -164 14 -122 0 -166 -3 -169 -12z"/>
<path d="M10881 1901 c-14 -25 -5 -48 20 -56 27 -9 51 13 47 44 -4 34 -51 43
-67 12z"/>
<path d="M10662 1697 c-61 -62 -112 -115 -112 -119 0 -20 201 -108 247 -108
10 0 13 34 13 164 0 140 -2 165 -16 170 -9 3 -16 6 -17 6 -1 0 -53 -51 -115
-113z"/>
<path d="M11033 1803 c-10 -3 -13 -47 -13 -169 0 -90 4 -164 8 -164 36 0 186
61 239 98 16 10 -216 242 -234 235z"/>
</g>
  </symbol>
</svg>