<svg width="369" height="581" viewBox="0 0 369 581" fill="none" xmlns="http://www.w3.org/2000/svg">
<rect x="301" y="381.19" width="5" height="100" transform="rotate(-39.6353 301 381.19)" fill="#909090"/>
<rect x="301" y="250.19" width="5" height="100" transform="rotate(-39.6353 301 250.19)" fill="#909090"/>
<circle cx="302.5" cy="198.5" r="48" fill="white" stroke="#909090" stroke-width="5"/>
<rect x="176.337" y="34.6662" width="39" height="199.598" transform="rotate(45 176.337 34.6662)" fill="black" stroke="#FFFEFE" stroke-width="3"/>
<rect x="34.5" y="1.5" width="39" height="578" rx="3.5" fill="black" stroke="#FFFEFE" stroke-width="3"/>
<rect x="351.5" y="34.5" width="39" height="350" rx="3.5" transform="rotate(90 351.5 34.5)" fill="black" stroke="#FFFEFE" stroke-width="3"/>
<rect x="298" y="75" width="10" height="74" fill="black"/>
<rect x="300" y="249" width="5" height="131" fill="#909090"/>
<rect x="300.796" y="246" width="5" height="100" transform="rotate(39.64 300.796 246)" fill="#909090"/>
<rect x="300.796" y="377" width="5" height="100" transform="rotate(39.64 300.796 377)" fill="#909090"/>
</svg>
